<?xml version="1.0" standalone="no"?>
<!DOCTYPE svg PUBLIC "-//W3C//DTD SVG 20010904//EN"
 "http://www.w3.org/TR/2001/REC-SVG-20010904/DTD/svg10.dtd">
<svg version="1.0" xmlns="http://www.w3.org/2000/svg"
 width="480.000000pt" height="500.000000pt" viewBox="0 0 480.000000 500.000000"
 preserveAspectRatio="xMidYMid meet">

<g transform="translate(0.000000,500.000000) scale(0.100000,-0.100000)"
fill="#000000" stroke="none">
<path d="M2440 4760 c-63 -10 -92 -23 -179 -83 -42 -29 -96 -62 -121 -72 -64
-28 -117 -66 -130 -95 -7 -14 -16 -32 -21 -40 -30 -52 -53 -103 -70 -155 -11
-33 -31 -82 -45 -108 -15 -28 -30 -78 -36 -120 -5 -39 -16 -83 -23 -98 -17
-32 -68 -185 -84 -254 -9 -36 -11 -105 -5 -248 4 -109 8 -196 10 -195 1 2 4
52 5 112 2 60 9 120 16 133 7 13 9 31 6 39 -3 9 0 20 8 25 10 6 14 28 13 74 0
36 4 65 9 65 5 0 4 7 -3 15 -19 23 -5 110 29 180 37 74 87 129 135 146 20 7
36 17 36 21 0 4 5 8 11 8 6 0 34 16 64 35 67 45 245 96 330 95 23 0 70 0 140
1 52 1 77 -3 108 -16 11 -5 24 -1 37 10 10 9 23 14 29 10 6 -3 27 -2 46 4 19
5 35 6 35 2 0 -3 26 -11 59 -18 32 -6 97 -29 144 -51 90 -43 132 -85 199 -200
39 -66 35 -35 -6 46 -26 52 -35 85 -40 146 -7 87 -23 153 -43 177 -7 8 -13 20
-13 25 0 16 -87 97 -92 84 -6 -18 -44 21 -52 53 -3 15 -13 27 -21 27 -8 0 -20
9 -27 20 -7 11 -21 20 -30 20 -10 0 -34 23 -55 50 -20 28 -40 50 -43 50 -4 0
-16 9 -28 20 -20 19 -64 41 -87 45 -5 0 -32 4 -60 8 -88 13 -109 14 -155 7z
m277 -142 c-3 -8 -6 -5 -6 6 -1 11 2 17 5 13 3 -3 4 -12 1 -19z m-201 -15
c-10 -10 -19 5 -10 18 6 11 8 11 12 0 2 -7 1 -15 -2 -18z m136 3 c7 4 8 2 4
-5 -10 -15 -26 -4 -25 17 1 15 2 15 6 -1 2 -9 9 -14 15 -11z m85 2 c-3 -8 -6
-5 -6 6 -1 11 2 17 5 13 3 -3 4 -12 1 -19z m60 -50 c-3 -8 -6 -5 -6 6 -1 11 2
17 5 13 3 -3 4 -12 1 -19z"/>
<path d="M2100 3700 c-19 -5 -70 -7 -113 -6 l-79 3 -36 -39 c-20 -21 -38 -46
-40 -56 -10 -45 -17 -134 -11 -144 4 -7 4 -19 -1 -29 -8 -13 -5 -16 16 -16 17
0 22 3 15 11 -13 17 -5 46 23 75 15 15 23 30 19 34 -3 4 1 7 9 7 9 0 18 4 20
9 2 5 15 13 31 16 23 6 27 4 27 -15 0 -11 -4 -18 -10 -15 -6 3 -7 -1 -4 -9 4
-11 0 -16 -10 -16 -9 0 -17 -4 -17 -10 -1 -5 -2 -15 -3 -20 0 -6 -6 -14 -12
-18 -16 -11 -26 -45 -15 -51 5 -4 2 -22 -9 -43 -12 -25 -13 -35 -5 -32 7 3 16
1 19 -4 3 -5 -3 -12 -13 -15 -30 -8 -35 -77 -5 -77 7 0 11 -6 8 -13 -3 -8 1
-14 8 -15 21 -1 57 -10 68 -17 6 -3 10 -1 10 4 0 6 5 11 11 11 5 0 7 -4 4 -10
-3 -5 -1 -10 4 -10 14 0 14 6 0 32 -9 16 -8 23 2 29 12 8 12 10 0 18 -20 13 2
23 60 27 60 4 87 18 99 50 12 29 24 30 51 3 21 -21 60 -23 66 -2 2 6 -20 19
-54 29 -80 24 -193 22 -257 -7 -38 -16 -51 -18 -60 -8 -7 8 -7 10 0 6 7 -4 18
16 30 50 27 80 42 93 108 99 73 6 122 -15 181 -77 48 -51 68 -62 59 -31 -4 12
1 10 16 -7 17 -20 20 -34 17 -77 -7 -79 24 -58 53 37 12 40 10 70 -7 91 -6 7
-19 32 -28 55 -9 23 -23 44 -32 47 -9 4 -13 13 -9 22 4 12 2 15 -9 10 -10 -4
-20 5 -30 30 -11 28 -19 34 -34 29 -21 -6 -38 10 -20 20 7 5 0 14 -18 26 -30
20 -40 21 -93 9z m-20 -360 c0 -5 -4 -10 -10 -10 -5 0 -10 5 -10 10 0 6 5 10
10 10 6 0 10 -4 10 -10z m-56 -16 c9 -24 0 -28 -23 -12 -12 8 -18 18 -14 21
12 12 31 7 37 -9z"/>
<path d="M3240 3695 c0 -8 5 -15 10 -15 6 0 10 7 10 15 0 8 -4 15 -10 15 -5 0
-10 -7 -10 -15z"/>
<path d="M2861 3674 c1 -5 1 -18 0 -28 -1 -18 -2 -18 -13 -3 -12 15 -16 14
-44 -12 -33 -30 -35 -52 -3 -44 22 6 52 -14 42 -30 -3 -6 -1 -7 6 -3 6 4 9 11
6 16 -3 5 0 12 6 16 8 4 9 3 5 -4 -4 -7 -4 -12 1 -13 4 0 21 -2 38 -4 21 -3
26 -2 15 5 -12 8 -11 10 6 10 12 0 29 11 37 24 17 25 12 42 -7 27 -6 -5 -20
-5 -31 0 -11 4 -15 8 -8 8 7 1 10 7 7 15 -3 8 -12 12 -20 9 -8 -3 -21 1 -30 8
-8 7 -14 8 -13 3z m59 -64 c18 -12 2 -12 -25 0 -13 6 -15 9 -5 9 8 0 22 -4 30
-9z"/>
<path d="M3017 3613 c-10 -9 -9 -23 1 -23 5 0 9 7 9 15 0 17 -1 18 -10 8z"/>
<path d="M2811 3547 c9 -7 14 -18 11 -26 -3 -9 0 -11 8 -6 7 4 27 8 44 8 17
-1 25 1 18 4 -6 3 -10 9 -6 14 3 5 1 9 -5 9 -5 0 -13 -5 -16 -11 -5 -7 -15 -5
-31 5 -27 19 -46 21 -23 3z"/>
<path d="M2965 3508 c11 -6 36 -24 56 -40 41 -32 51 -35 43 -13 -7 17 -71 57
-99 62 l-20 3 20 -12z"/>
<path d="M2770 3393 c-29 -6 -52 -22 -45 -33 3 -4 -5 -10 -18 -14 -18 -5 -19
-8 -7 -15 8 -5 18 -7 22 -5 4 3 8 -1 8 -8 0 -7 6 -2 13 12 17 35 47 39 47 7 0
-36 25 -51 83 -52 51 0 62 8 80 58 3 10 57 -13 57 -25 0 -4 10 -8 23 -8 20 1
20 3 -12 30 -58 49 -156 70 -251 53z"/>
<path d="M1719 3194 c0 -21 0 -59 1 -84 l1 -45 -18 27 c-13 18 -23 24 -32 19
-11 -7 -9 -13 7 -29 17 -17 19 -27 12 -52 -5 -16 -18 -42 -29 -56 -13 -16 -19
-37 -17 -55 4 -35 34 -72 53 -65 7 3 13 -1 13 -10 0 -8 7 -17 15 -20 10 -4 13
-16 9 -46 -6 -42 14 -78 44 -78 8 0 12 -6 9 -14 -9 -24 20 -168 52 -260 30
-86 63 -152 115 -231 52 -78 55 -96 25 -139 -24 -36 -107 -102 -115 -93 -11
11 -122 -52 -160 -90 -20 -20 -48 -60 -61 -89 -16 -35 -43 -69 -78 -99 -39
-33 -55 -55 -59 -80 -5 -27 -12 -35 -29 -36 -74 -1 -311 -21 -357 -29 -30 -5
-102 -14 -159 -20 -118 -12 -190 -44 -226 -100 -11 -17 -36 -41 -55 -53 -74
-46 -125 -118 -165 -232 -12 -36 -31 -75 -41 -87 -32 -35 -129 -105 -206 -148
-127 -72 -169 -125 -233 -297 l-35 -93 2 -253 3 -252 2398 -3 2397 -2 -3 522
-3 523 -36 98 c-19 54 -46 109 -58 122 -30 31 -136 59 -220 56 -60 -1 -73 2
-177 53 -130 64 -166 80 -248 108 -68 23 -97 24 -166 7 -42 -11 -56 -10 -102
4 -77 24 -91 37 -77 69 15 33 -3 70 -74 150 -33 39 -57 78 -69 115 -27 84 -56
115 -145 155 -110 50 -115 51 -131 26 -11 -18 -11 -20 4 -15 9 4 14 3 10 -3
-3 -6 -2 -10 3 -10 5 0 10 -12 10 -27 l0 -27 -15 27 c-8 17 -22 27 -36 27 -21
-1 -20 -2 6 -18 26 -16 38 -52 17 -52 -5 0 -10 6 -10 14 0 8 -7 17 -16 20 -8
3 -12 2 -9 -4 3 -6 2 -10 -4 -10 -6 0 -8 -6 -5 -14 3 -8 12 -12 20 -9 8 3 14
-1 14 -11 0 -9 8 -16 18 -16 13 0 14 -2 3 -9 -9 -6 -20 -2 -32 10 -11 11 -24
19 -29 19 -6 0 -9 3 -9 8 3 20 -2 25 -12 12 -9 -13 -10 -13 -6 0 2 8 10 14 16
12 14 -3 15 15 1 20 -5 2 -7 13 -4 25 4 13 11 20 17 16 6 -3 7 -1 3 6 -4 6
-11 9 -14 7 -4 -2 -18 2 -32 10 l-25 14 31 -6 c20 -4 34 -1 39 7 6 9 3 11 -9
6 -10 -4 -15 -3 -11 3 4 6 -11 28 -32 50 -53 53 -60 64 -56 77 2 6 -1 15 -8
19 -8 5 -10 3 -4 -7 4 -8 -6 -1 -24 16 -28 26 -31 35 -26 64 4 18 19 60 35 93
22 46 25 58 13 54 -14 -6 -14 -4 -2 11 12 15 12 16 -3 10 -12 -4 -15 -2 -11 9
3 7 10 14 16 14 6 0 7 3 4 6 -4 4 -13 1 -22 -6 -13 -11 -14 -10 -9 4 4 11 -1
24 -14 36 -17 16 -21 17 -26 5 -3 -8 -3 -22 0 -30 6 -14 -6 -20 -29 -16 -5 1
-6 -3 -3 -8 4 -5 -1 -16 -9 -24 -8 -9 -15 -20 -15 -26 0 -6 -4 -11 -10 -11 -5
0 -10 -7 -10 -16 0 -9 5 -13 13 -9 6 4 3 -1 -7 -9 -26 -21 -36 -20 -36 4 0 25
-15 26 -24 3 -6 -15 -8 -15 -16 -3 -8 12 -10 12 -10 1 0 -8 -8 -20 -17 -28
-12 -9 -13 -12 -3 -8 8 4 3 -5 -12 -18 -15 -14 -24 -28 -20 -32 9 -9 10 -55 1
-49 -4 2 -11 -1 -15 -8 -5 -8 -10 -6 -15 8 -3 10 -5 -10 -3 -45 4 -54 2 -62
-10 -52 -11 9 -15 8 -20 -4 -3 -9 -2 -13 4 -10 6 3 10 2 10 -3 0 -10 -29 -26
-42 -24 -5 1 -8 -2 -8 -7 0 -8 -75 -27 -92 -23 -3 1 -9 -5 -12 -13 -3 -8 -1
-15 4 -15 6 0 10 -4 10 -9 0 -4 -11 -7 -25 -6 -14 2 -25 -1 -25 -6 0 -6 -4 -7
-10 -4 -6 3 -7 -1 -4 -9 8 -21 1 -20 -41 3 -19 10 -32 21 -28 25 3 3 1 6 -5 6
-6 0 -9 8 -5 18 5 16 5 16 -8 0 -17 -20 -91 -28 -96 -11 -3 7 -11 9 -19 6 -7
-3 -17 2 -20 11 -5 13 -9 14 -20 5 -12 -9 -22 -5 -51 24 -20 20 -39 34 -43 32
-4 -3 -10 5 -13 16 -4 13 -10 18 -17 14 -9 -5 -10 -1 -5 16 10 33 10 31 1 57
-10 31 -3 37 26 21 12 -7 26 -14 31 -15 4 -1 8 -3 10 -4 1 -1 18 -4 37 -5 54
-6 66 -9 84 -28 19 -18 46 -23 46 -7 0 5 7 7 15 4 16 -7 129 64 132 84 2 6 -2
12 -7 12 -6 0 -10 -6 -10 -12 0 -10 -2 -10 -9 0 -4 8 -28 16 -52 19 -24 2 -51
7 -59 10 -8 3 -29 7 -45 8 -40 3 -95 32 -95 50 0 7 -9 17 -20 20 -11 4 -28 18
-37 32 -14 21 -14 26 -2 34 19 12 120 3 129 -12 5 -7 10 -7 13 -2 7 11 -24 28
-65 37 -16 4 -28 13 -28 21 0 10 -10 15 -30 15 -19 0 -30 5 -30 14 0 20 14 23
132 24 59 0 112 3 118 7 5 3 14 4 19 0 5 -3 12 -1 16 5 3 5 3 11 -2 11 -13 2
-74 8 -124 13 -62 5 -86 19 -84 48 1 16 9 24 26 26 13 1 40 7 61 12 24 7 45 7
62 0 16 -6 26 -6 26 0 0 6 9 6 25 0 16 -6 25 -6 25 0 0 6 7 10 15 10 9 0 15 9
16 23 0 21 1 21 9 2 l9 -20 1 20 c1 19 1 19 14 3 19 -25 25 -22 20 9 -4 23 -3
25 11 13 8 -7 15 -19 15 -27 0 -9 6 -13 14 -10 8 3 17 1 20 -6 2 -7 5 -4 5 6
1 9 -6 17 -15 17 -8 0 -13 3 -11 8 3 4 -11 17 -30 30 -25 16 -34 18 -30 8 4
-10 1 -13 -9 -9 -23 9 -14 57 12 61 12 2 27 15 33 30 11 22 10 28 -5 39 -19
14 -47 9 -100 -17 -32 -17 -40 -17 -81 -5 -24 7 -51 22 -58 31 -15 21 -73 22
-120 3 -17 -7 -33 -12 -37 -11 -5 1 -8 -11 -8 -28 0 -16 -4 -30 -9 -30 -6 0
-8 -9 -6 -19 2 -11 -5 -27 -14 -36 -19 -16 -103 -64 -154 -87 -19 -9 -31 -24
-38 -51 -5 -20 -14 -35 -19 -32 -6 4 -10 -3 -10 -15 0 -12 -5 -18 -10 -15 -6
4 -8 10 -6 14 3 4 -4 22 -15 40 -11 18 -17 36 -14 42 4 5 -1 12 -9 15 -9 3
-16 12 -16 19 0 21 -29 45 -45 39 -10 -4 -15 0 -15 11 0 11 -5 15 -15 11 -9
-3 -15 -1 -14 7 7 57 -16 26 -27 -36 -6 -34 -14 -49 -14 -26 0 8 -6 26 -14 41
-8 15 -17 55 -21 90 -3 35 -11 99 -17 143 -6 44 -12 122 -14 174 -3 94 -13
138 -15 65z m21 -257 c-1 -51 -1 -52 -15 -25 -9 16 -12 38 -9 57 10 46 24 27
24 -32z m810 -155 c0 -4 -9 -13 -20 -20 -16 -10 -20 -10 -20 2 0 8 6 17 13 19
19 8 27 8 27 -1z m-521 -235 c8 -10 7 -14 -4 -14 -8 0 -15 6 -15 14 0 7 2 13
4 13 2 0 9 -6 15 -13z m197 -128 c7 -15 14 -35 14 -43 0 -8 7 -21 15 -30 18
-18 4 -30 -24 -21 -16 5 -19 1 -17 -24 1 -16 -1 -37 -5 -47 -6 -15 -8 -14 -8
9 -1 15 -6 27 -12 27 -5 0 -7 5 -4 10 3 6 -1 10 -9 10 -8 0 -19 6 -23 13 -4 8
-16 16 -25 20 -11 4 -15 12 -12 22 3 8 2 15 -3 15 -5 0 -10 7 -10 14 0 8 3 15
6 14 19 -2 24 3 12 11 -19 12 -7 39 21 50 28 10 63 -11 84 -50z m845 -2 c-10
-9 -11 -8 -5 6 3 10 9 15 12 12 3 -3 0 -11 -7 -18z m16 -29 c2 -17 0 -19 -7
-8 -5 8 -6 18 -4 22 8 12 10 10 11 -14z m-8 -298 c6 -41 21 -103 32 -138 22
-67 22 -90 -5 -187 -18 -63 -44 -120 -101 -220 -18 -33 -40 -71 -48 -85 -43
-76 -54 -91 -80 -101 -15 -7 -36 -22 -46 -35 -10 -13 -31 -28 -45 -34 -22 -8
-31 -6 -48 10 -28 26 -57 28 -37 3 10 -11 10 -14 2 -9 -7 4 -13 2 -13 -3 0 -6
5 -11 10 -11 20 0 9 -17 -51 -83 -34 -37 -69 -67 -78 -67 -14 0 -187 114 -218
143 -7 7 -15 33 -18 59 -6 40 -4 47 12 50 23 5 84 -13 101 -29 12 -11 42 -16
105 -16 9 0 17 -4 17 -8 0 -5 10 -9 23 -9 20 1 21 2 4 14 -16 13 -16 14 7 18
13 3 31 1 39 -4 12 -6 14 -3 10 12 -6 23 -8 24 -34 10 -11 -7 -19 -7 -19 -1 0
5 6 12 13 15 9 5 9 7 -1 12 -6 3 -9 11 -6 16 4 6 2 8 -4 4 -6 -3 -13 -2 -17 4
-4 6 -10 8 -15 5 -5 -3 -15 3 -22 15 -7 11 -17 20 -21 20 -5 0 -15 7 -24 15
-8 8 -20 12 -26 8 -7 -3 -9 -3 -5 2 4 4 1 20 -7 35 -12 24 -12 28 6 43 10 9
24 17 29 17 6 0 9 5 8 12 -2 6 14 15 34 20 20 5 44 18 54 29 16 18 16 19 -4
19 -27 0 -31 8 -25 44 3 16 14 31 24 33 10 3 17 9 14 13 -5 9 38 40 56 40 6 0
9 -7 5 -15 -3 -8 -1 -15 4 -15 8 0 12 20 9 46 -1 10 36 33 41 25 3 -4 19 -4
35 0 21 5 24 7 10 9 -11 1 -24 2 -28 1 -5 -1 -6 3 -2 9 3 6 11 8 16 4 6 -3 13
3 16 15 3 13 13 21 27 21 12 0 28 9 36 20 8 11 20 20 28 20 7 0 15 7 19 16 3
8 12 13 20 10 8 -3 12 -2 9 2 -3 5 16 32 42 62 43 49 65 82 94 138 16 32 23
18 37 -68z m141 -110 c0 -5 -5 -10 -11 -10 -5 0 -7 5 -4 10 3 6 8 10 11 10 2
0 4 -4 4 -10z m115 -80 c-3 -5 -16 -10 -28 -9 -21 0 -21 1 -2 9 28 12 37 12
30 0z m-100 -38 c-8 -8 -25 10 -19 20 4 6 9 5 15 -3 4 -7 6 -15 4 -17z m-56
-5 c-2 -1 -12 -9 -22 -16 -15 -12 -17 -12 -11 3 3 9 13 16 22 16 8 0 13 -1 11
-3z m56 -35 c-3 -3 -11 0 -18 7 -9 10 -8 11 6 5 10 -3 15 -9 12 -12z m-5 -30
c0 -10 6 -24 13 -32 10 -12 9 -12 -4 -2 -19 14 -32 52 -18 52 5 0 9 -8 9 -18z
m-65 -60 c-3 -3 -11 0 -18 7 -9 10 -8 11 6 5 10 -3 15 -9 12 -12z"/>
<path d="M2608 1729 c-23 -25 -10 -24 22 1 16 13 20 19 10 19 -8 0 -23 -9 -32
-20z"/>
<path d="M2651 1312 c-1 -8 -6 -10 -13 -6 -7 4 -10 3 -5 -1 12 -13 47 -16 47
-4 0 5 -4 8 -9 5 -5 -4 -12 0 -14 6 -4 10 -6 10 -6 0z"/>
<path d="M1605 3133 c11 -117 19 -127 35 -45 12 64 11 74 -4 96 -30 46 -38 32
-31 -51z"/>
<path d="M3342 3187 c-25 -27 -28 -47 -8 -47 13 0 41 58 33 67 -2 1 -13 -7
-25 -20z"/>
<path d="M3220 2830 c0 -5 5 -10 11 -10 5 0 7 5 4 10 -3 6 -8 10 -11 10 -2 0
-4 -4 -4 -10z"/>
<path d="M3216 2794 c-3 -9 -4 -19 -1 -24 3 -4 -1 -13 -9 -19 -12 -10 -11 -51
1 -51 27 0 45 74 21 83 -10 4 -10 6 0 6 6 1 12 6 12 11 0 16 -17 12 -24 -6z"/>
<path d="M2804 2613 c7 -23 -7 -45 -25 -42 -20 4 -59 -11 -59 -22 0 -5 5 -9
10 -9 6 0 10 -6 10 -14 0 -12 9 -11 46 5 47 21 74 15 74 -17 0 -8 5 -14 10
-14 6 0 14 -10 19 -22 6 -18 8 -13 7 22 -1 25 -5 51 -9 58 -5 7 -4 12 2 12 5
0 15 -8 20 -17 6 -10 11 -13 11 -6 0 6 -5 15 -10 18 -6 4 -9 9 -6 13 2 4 -12
17 -30 29 -20 13 -34 17 -34 11 0 -9 -3 -9 -12 0 -18 18 -30 15 -24 -5z"/>
<path d="M2658 2543 c6 -2 18 -2 25 0 6 3 1 5 -13 5 -14 0 -19 -2 -12 -5z"/>
<path d="M3086 2511 c-3 -5 1 -11 9 -14 9 -4 12 -1 8 9 -6 16 -10 17 -17 5z"/>
<path d="M2465 2430 c-28 -7 -27 -8 13 -9 23 0 42 4 42 9 0 11 -11 11 -55 0z"/>
</g>
</svg>
